<svg width="24" height="24" viewBox="0 0 24 24" fill="none" xmlns="http://www.w3.org/2000/svg">
<g clip-path="url(#clip0)">
<path d="M19.6239 4.51386C18.2217 3.87206 16.7181 3.39921 15.1459 3.12839C15.1173 3.12317 15.0887 3.13623 15.0739 3.16235C14.8805 3.50545 14.6663 3.95304 14.5163 4.30485C12.8254 4.05232 11.1431 4.05232 9.48679 4.30485C9.33676 3.94522 9.11478 3.50545 8.92053 3.16235C8.90578 3.1371 8.87718 3.12404 8.84855 3.12839C7.27725 3.39835 5.7736 3.8712 4.37052 4.51386C4.35838 4.51908 4.34797 4.5278 4.34106 4.53911C1.48894 8.78954 0.707629 12.9355 1.09092 17.0301C1.09265 17.0501 1.10392 17.0693 1.11953 17.0814C3.00127 18.4599 4.82406 19.2968 6.61301 19.8515C6.64164 19.8602 6.67197 19.8497 6.69019 19.8262C7.11337 19.2498 7.49059 18.6419 7.81402 18.0027C7.83311 17.9653 7.81489 17.9209 7.77588 17.9061C7.17754 17.6797 6.6078 17.4036 6.05975 17.0901C6.0164 17.0649 6.01293 17.003 6.05281 16.9734C6.16814 16.8872 6.2835 16.7975 6.39363 16.707C6.41355 16.6904 6.44131 16.6869 6.46474 16.6974C10.0652 18.3371 13.9631 18.3371 17.521 16.6974C17.5445 16.6861 17.5722 16.6896 17.593 16.7061C17.7032 16.7967 17.8185 16.8872 17.9347 16.9734C17.9746 17.003 17.972 17.0649 17.9286 17.0901C17.3806 17.4097 16.8108 17.6797 16.2116 17.9052C16.1726 17.92 16.1553 17.9653 16.1744 18.0027C16.5047 18.641 16.882 19.2489 17.2973 19.8254C17.3147 19.8497 17.3459 19.8602 17.3745 19.8515C19.1721 19.2968 20.9949 18.4599 22.8766 17.0814C22.8931 17.0693 22.9035 17.051 22.9053 17.0309C23.364 12.2972 22.1369 8.18521 19.6525 4.53998C19.6465 4.5278 19.6361 4.51908 19.6239 4.51386ZM8.35169 14.5369C7.26771 14.5369 6.37454 13.5442 6.37454 12.325C6.37454 11.1059 7.25039 10.1132 8.35169 10.1132C9.46163 10.1132 10.3462 11.1146 10.3288 12.325C10.3288 13.5442 9.45296 14.5369 8.35169 14.5369ZM15.6619 14.5369C14.5779 14.5369 13.6847 13.5442 13.6847 12.325C13.6847 11.1059 14.5606 10.1132 15.6619 10.1132C16.7718 10.1132 17.6563 11.1146 17.639 12.325C17.639 13.5442 16.7718 14.5369 15.6619 14.5369Z" fill="white"/>
</g>
<defs>
<clipPath id="clip0">
<rect width="22" height="17" fill="white" transform="translate(1 3)"/>
</clipPath>
</defs>
</svg>
