<svg width="36" height="36" version="1.1" viewBox="0 0 752 752" fill="none" xmlns="http://www.w3.org/2000/svg">
<path d="m603.57 234.46-86.02-86.02c-2.7188-2.7148-6.4023-4.2422-10.242-4.2422-3.8438 0-7.5273 1.5273-10.246 4.2422l-301.05 301.06c-1.5195 1.5195-2.6797 3.3594-3.4023 5.3828l-47.566 133.6c-1.2305 3.4609-1.1016 7.2578 0.35938 10.629 1.4648 3.3672 4.1523 6.0547 7.5195 7.5195 3.3711 1.4609 7.168 1.5898 10.629 0.35938l133.6-47.566c2.0234-0.71875 3.8633-1.8828 5.3828-3.4062l301.04-301.07c2.7148-2.7188 4.2422-6.4023 4.2422-10.246s-1.5273-7.5273-4.2422-10.242zm-391.33 251.75 53.594 53.594-83.25 29.625zm326.41-207.32-65.527-65.531 34.176-34.176 65.531 65.527z" fill="white"/>
</svg>
